<svg width="1400" height="416" viewBox="0 0 1400 416" fill="none" xmlns="http://www.w3.org/2000/svg">
<mask id="mask0_294:1111" style="mask-type:alpha" maskUnits="userSpaceOnUse" x="0" y="0" width="1400" height="416">
<rect width="1400" height="416" fill="#17AE93"/>
</mask>
<g mask="url(#mask0_294:1111)">
<rect width="1400" height="532" fill="#C7E1F5"/>
<g style="mix-blend-mode:multiply">
<path fill-rule="evenodd" clip-rule="evenodd" d="M1416 242.839C1302.43 306.595 1138.74 319.451 982.84 274.17C849.359 235.411 793.519 232.406 694.341 255.696C528.41 304.953 430.493 314.65 280.84 271.185C111.27 221.946 32.4915 234.411 -99.9396 281.407C-99.9799 279.178 -100 276.95 -100 274.721C-100 207.369 -83.5296 143.85 -54.3976 87.926C48.4216 56.618 127.059 53.5059 272.329 95.6979C423.028 150.349 537.724 124.07 647.375 91.3478C647.451 91.2024 647.527 91.0569 647.602 90.9115C750.422 59.6035 829.059 56.4914 974.329 98.6834C1113.53 139.114 1284 149.306 1416 48.7971C1432.34 79.1409 1426.42 125.944 1420.84 170.175C1417.49 196.686 1414.25 222.274 1416 242.839Z" fill="#D1E6EE" fill-opacity="0.6"/>
</g>
<path fill-rule="evenodd" clip-rule="evenodd" d="M731.344 527.866C565.411 577.123 467.494 586.821 317.84 543.355C148.27 494.117 69.4915 506.582 -62.9396 553.577C-62.9799 551.349 -63 549.12 -63 546.892C-63 510.742 -58.2552 475.696 -49.3545 442.336C-53.8224 443.881 -58.3488 445.468 -62.9396 447.098C-62.9799 444.869 -63 442.641 -63 440.412C-63 373.059 -46.5296 309.541 -17.3976 253.617C85.4216 222.309 164.059 219.196 309.329 261.388C460.028 316.04 574.724 289.761 684.375 257.038C684.451 256.893 684.527 256.747 684.602 256.602C787.422 225.294 866.059 222.182 1011.33 264.374C1150.53 304.804 1321 314.997 1453 214.488C1469.01 244.226 1463.65 289.773 1458.17 333.215C1467.85 363.093 1462.72 403.701 1457.84 442.345C1454.49 468.857 1451.25 494.444 1453 515.009C1339.43 578.765 1175.74 591.621 1019.84 546.341C886.361 507.582 830.521 504.577 731.344 527.866Z" fill="#9AC2E3"/>
<path d="M1497.46 320.143L1528 283.724L1497.49 247.339C1482.19 151.988 1407.61 76.4852 1312.8 59.9484L1273.6 27L1234.41 59.9436C1139.73 76.4611 1065.2 151.781 1049.76 246.959L1019 283.618L1049.73 320.263C1065.07 415.008 1138.94 490.092 1233 507.105L1273.58 541.228L1314.17 507.105C1408.28 490.078 1482.17 414.935 1497.46 320.143Z" fill="#FFD978"/>
<path d="M1256.56 194.432C1325.33 214.511 1397.15 211.624 1451.77 188.32C1417.62 124.647 1350.5 81.3701 1273.27 81.3701C1194.97 81.3701 1127.05 125.884 1093.37 191.015C1144.98 175.022 1183.97 173.256 1256.56 194.432Z" fill="#E9F7F6"/>
<path d="M1088.24 365.662C1144.54 347.041 1183.72 343.764 1260.51 366.182C1332.61 387.228 1408.07 383.027 1463.51 356.556C1472.08 333.729 1476.45 309.539 1476.42 285.154C1476.42 278.778 1476.13 272.477 1475.55 266.249C1419.32 298.355 1337.88 304.91 1260.34 282.271C1176.23 257.725 1137.26 263.982 1071.5 287.478C1071.6 327.068 1088.23 365.768 1088.24 365.662Z" fill="#9FC4E0"/>
<path d="M1260.34 282.256C1337.53 304.79 1418.56 298.398 1474.79 266.663C1472.39 238.638 1463.98 210.656 1451.35 187.064C1396.69 210.512 1323.82 213.274 1256.21 193.802C1182.67 172.626 1147.58 175.032 1094.23 190.914C1079.81 218.747 1071.79 250.497 1071.79 284.018C1071.79 285.131 1071.8 286.24 1071.82 287.343C1137.39 263.953 1176.39 257.745 1260.34 282.256Z" fill="#D1E6EE"/>
<path d="M1463.19 356.287C1407.71 382.863 1332.18 387.089 1260 366.013C1183.22 343.595 1144.03 346.873 1087.74 365.494C1118.85 437.401 1190.36 487.705 1273.61 487.705C1360.36 487.705 1434.37 433.07 1463.19 356.287Z" fill="#7EBBD2"/>
<path fill-rule="evenodd" clip-rule="evenodd" d="M1257.33 168.54C1255.33 167.633 1253.4 166.562 1251.56 165.331C1244.92 160.889 1239.75 154.575 1236.69 147.188C1233.63 139.801 1232.83 131.672 1234.39 123.83C1235.95 115.988 1239.8 108.784 1245.44 103.13C1251.09 97.4764 1258.28 93.626 1266.11 92.0661C1273.95 90.5062 1282.06 91.3068 1289.44 94.3667C1296.82 97.4265 1303.12 102.608 1307.56 109.256C1312 115.905 1314.36 123.721 1314.36 131.717C1314.35 142.435 1310.1 152.712 1302.53 160.291C1299.38 163.44 1295.77 166.017 1291.86 167.954L1294.9 214.016H1388.71L1407.46 254.323C1407.46 254.323 1398.47 248.961 1390.69 247.335L1390.23 247.229V247.258H1297.1L1306.02 382.247C1312.54 395.555 1333.16 403.982 1376.89 381.135C1376.86 381.178 1390.7 371.158 1396.6 365.253C1407.01 354.825 1411.55 346.75 1415.16 340.321C1415.55 339.629 1415.93 338.956 1416.3 338.301C1419.29 333.065 1423.51 324.344 1423.99 320.975C1424.23 320.451 1406.55 317.043 1397.08 317.606L1396.17 295.597C1411.58 295.126 1437.53 299.833 1460.21 307.908C1459.83 308.935 1459.32 310.324 1458.72 311.955L1458.72 311.966L1458.71 311.968L1458.71 311.973C1455.57 320.536 1449.99 335.765 1447.71 340.544C1443.69 349.587 1432.62 371.418 1411.18 392.474C1395.4 408.07 1377 420.756 1356.82 429.951C1338.43 438.213 1318.86 443.514 1298.83 445.66C1284.25 450.55 1275.69 461.971 1274.16 464.17L1274.13 464.541L1274.01 464.372L1273.9 464.541V464.214C1272.45 462.13 1263.9 450.584 1249.2 445.66C1229.16 443.511 1209.58 438.202 1191.19 429.932C1171.01 420.74 1152.6 408.053 1136.83 392.455C1115.4 371.399 1104.33 349.568 1100.3 340.525C1098.16 336.039 1093.11 322.306 1089.89 313.56C1089.04 311.223 1088.31 309.242 1087.8 307.889C1110.51 299.852 1136.48 295.116 1151.86 295.597L1150.96 317.606C1141.48 317.043 1123.81 320.451 1124.04 320.975C1124.52 324.344 1128.74 333.065 1131.73 338.301C1132.1 338.956 1132.48 339.629 1132.87 340.321C1136.48 346.75 1141.02 354.825 1151.44 365.253C1157.33 371.158 1171.18 381.178 1171.14 381.135C1218.13 405.68 1238.43 394.13 1243.24 379.21L1244.34 373.244L1252.33 247.253H1156.8H1156.73C1148.94 248.88 1139.57 254.241 1139.57 254.241L1160.89 214.016H1254.44L1257.33 168.54ZM1264.91 118.111C1267.6 116.313 1270.76 115.353 1273.99 115.353C1278.33 115.353 1282.48 117.077 1285.55 120.146C1288.61 123.215 1290.33 127.377 1290.33 131.717C1290.33 134.953 1289.37 138.117 1287.58 140.808C1285.78 143.499 1283.23 145.596 1280.24 146.835C1277.26 148.073 1273.97 148.397 1270.8 147.766C1267.63 147.135 1264.72 145.576 1262.44 143.288C1260.15 140.999 1258.59 138.083 1257.96 134.909C1257.33 131.735 1257.66 128.445 1258.89 125.455C1260.13 122.465 1262.22 119.909 1264.91 118.111Z" fill="#010E34"/>
</g>
</svg>
