<svg width="400" height="400" viewBox="0 0 400 400" fill="none" xmlns="http://www.w3.org/2000/svg">
<path d="M370.737 227.465L394.015 199.703L370.759 171.966C359.093 99.2796 302.243 41.7229 229.964 29.1168L200.084 4L170.212 29.1132C98.0316 41.7046 41.2218 99.1218 29.4494 171.677L6 199.622L29.4237 227.557C41.1191 299.781 97.4344 357.019 169.131 369.988L200.07 396L231.012 369.988C302.749 357.008 359.079 299.726 370.737 227.465Z" fill="#FFD978"/>
<path d="M187.096 131.635C239.52 146.941 294.267 144.74 335.901 126.976C309.868 78.4369 258.705 45.4468 199.836 45.4468C140.146 45.4468 88.3702 79.3798 62.6931 129.03C102.037 116.839 131.755 115.492 187.096 131.635Z" fill="#E9F7F6"/>
<path d="M58.7836 262.165C101.7 247.97 131.568 245.471 190.104 262.561C245.064 278.605 302.588 275.402 344.852 255.223C351.384 237.822 354.719 219.382 354.697 200.792C354.697 195.932 354.476 191.129 354.034 186.381C311.165 210.856 249.083 215.853 189.976 198.595C125.856 179.884 96.1488 184.653 46.0183 202.565C46.0953 232.744 58.7763 262.245 58.7836 262.165Z" fill="#9FC4E0"/>
<path d="M189.976 198.584C248.816 215.761 310.59 210.889 353.451 186.697C351.619 165.333 345.211 144.003 335.582 126.018C293.915 143.893 238.366 145.998 186.825 131.154C130.766 115.012 104.019 116.846 63.349 128.953C52.3571 150.17 46.2456 174.373 46.2456 199.927C46.2456 200.775 46.253 201.62 46.2676 202.462C96.2479 184.631 125.977 179.898 189.976 198.584Z" fill="#D1E6EE"/>
<path d="M344.61 255.018C302.317 275.277 244.738 278.498 189.719 262.433C131.184 245.343 101.315 247.842 58.3989 262.036C82.1195 316.852 136.628 355.199 200.088 355.199C266.219 355.199 322.637 313.55 344.61 255.018Z" fill="#7EBBD2"/>
<path fill-rule="evenodd" clip-rule="evenodd" d="M187.678 111.897C186.155 111.206 184.685 110.389 183.283 109.451C178.221 106.064 174.276 101.251 171.947 95.62C169.618 89.9888 169.008 83.7922 170.196 77.8141C171.383 71.836 174.314 66.3447 178.619 62.0347C182.923 57.7247 188.407 54.7895 194.377 53.6004C200.347 52.4113 206.536 53.0216 212.16 55.3541C217.783 57.6867 222.59 61.6367 225.972 66.7048C229.354 71.7728 231.159 77.7312 231.159 83.8264C231.15 91.9972 227.905 99.8309 222.135 105.609C219.737 108.009 216.985 109.974 214.001 111.451L216.321 146.563H287.833L302.126 177.29C302.126 177.29 295.275 173.203 289.339 171.963L288.991 171.882V171.904H217.996L224.797 274.808C229.767 284.953 245.486 291.376 278.824 273.96C278.798 273.993 289.35 266.355 293.846 261.853C301.785 253.903 305.244 247.748 307.999 242.847L307.999 242.847C308.295 242.319 308.583 241.806 308.868 241.307C311.147 237.316 314.364 230.668 314.73 228.1C314.906 227.7 301.43 225.102 294.212 225.531L293.52 208.754C305.266 208.394 325.052 211.982 342.335 218.139C342.045 218.923 341.656 219.984 341.199 221.23C338.807 227.757 334.55 239.373 332.808 243.017C329.745 249.911 321.304 266.553 304.962 282.604C292.933 294.492 278.903 304.164 263.519 311.173C249.507 317.471 234.589 321.512 219.317 323.148C208.204 326.876 201.679 335.582 200.51 337.258L200.488 337.541L200.4 337.412L200.316 337.541V337.291C199.209 335.703 192.687 326.901 181.483 323.148C166.204 321.509 151.28 317.463 137.262 311.158C121.877 304.151 107.847 294.479 95.8192 282.589C79.4888 266.538 71.0471 249.896 67.973 243.002C66.3452 239.583 62.4952 229.114 60.0436 222.447L60.0435 222.447L60.0434 222.447C59.3883 220.665 58.833 219.155 58.4467 218.124C75.7553 211.997 95.559 208.387 107.284 208.754L106.591 225.531C99.3695 225.102 85.8971 227.7 86.073 228.1C86.4394 230.668 89.6563 237.316 91.9353 241.307C92.2201 241.806 92.5084 242.319 92.8049 242.847C95.5592 247.748 99.0185 253.903 106.958 261.853C111.453 266.355 122.006 273.993 121.98 273.96C157.795 292.671 173.276 283.866 176.939 272.492L177.781 267.944L183.872 171.9H111.047H110.995C105.056 173.141 97.915 177.228 97.915 177.228L114.165 146.563H185.479L187.678 111.897ZM193.461 73.4547C195.509 72.084 197.918 71.3524 200.382 71.3524C203.686 71.3524 206.854 72.6666 209.19 75.006C211.527 77.3453 212.839 80.5181 212.839 83.8264C212.839 86.2936 212.108 88.7053 210.74 90.7566C209.371 92.808 207.425 94.4068 205.149 95.3509C202.873 96.2951 200.368 96.5421 197.951 96.0608C195.535 95.5795 193.315 94.3914 191.573 92.6469C189.831 90.9024 188.644 88.6797 188.163 86.26C187.683 83.8403 187.929 81.3322 188.872 79.0528C189.815 76.7735 191.412 74.8253 193.461 73.4547Z" fill="#010E34"/>
</svg>
