<svg xmlns="http://www.w3.org/2000/svg" viewBox="0 0 917.52 448.7"><title>8086</title><g id="Layer_5" data-name="Layer 5"><path d="M77.41,291q.47,7.42.54,14.86c0,1.08,1.78,1.41,2,.26.58-3.65,1.6-11.11,4.58-13.55,4.29-3.5,4.56,9.21,4.68,11.71a1,1,0,0,0,2,.27,57.12,57.12,0,0,1,8.56-15.35l-1.57-.2c3.68,5-1.69,13.53,3.71,17.65,2.63,2,6.44,1.31,7.6-1.82.45-1.21-1.49-1.74-1.93-.54-2,5.28-6-2.24-6.14-4.64-.11-1.7.35-3.44.37-5.14A10,10,0,0,0,99.86,288c-.34-.46-1.14-.76-1.57-.2A60.34,60.34,0,0,0,89.21,304l2,.27c-.16-3.28.15-15.39-4.81-15.63C81,288.38,78.55,302,78,305.58l2,.27q-.08-7.44-.54-14.86c-.08-1.28-2.08-1.29-2,0Z" transform="translate(-46.77 -235.97)"/><path d="M109.56,291.44c-2.25,4.57-4.62,10.56-.32,14.74,3.43,3.33,7.94,1.41,9.91-2.42s2.95-9.93-.71-12.9a7.1,7.1,0,0,0-10.06,1.32c-.78,1,1,2,1.72,1a5.08,5.08,0,0,1,7.21-.66c2.53,2.4,1.56,7.4.11,10.22-1.74,3.39-5.71,4.38-7.82.66-2-3.53.09-7.72,1.69-11,.57-1.15-1.16-2.16-1.73-1Z" transform="translate(-46.77 -235.97)"/><path d="M123.8,290.11a65.22,65.22,0,0,0,6.63,17.44,1,1,0,0,0,1.83-.24l7.71-19c.48-1.19-1.45-1.71-1.93-.53l-7.71,19,1.83-.24a63.34,63.34,0,0,1-6.43-17c-.28-1.26-2.21-.73-1.93.53Z" transform="translate(-46.77 -235.97)"/><path d="M165.55,295.3a4.89,4.89,0,0,0-5.85-6.21c-5.24,1.16-6.71,7.54-6.91,12.13-.17,3.77,2.81,6,6.46,5.09,4.83-1.26,5.47-6.83,5.68-11,.06-1.1-1.8-1.39-2-.26-.53,3.59-1.61,9,.76,12.23,1.66,2.25,5.26,2.46,6.55-.24.56-1.15-1.17-2.17-1.72-1-1,2.07-3.26-.18-3.85-1.34a7.75,7.75,0,0,1-.27-3,38.68,38.68,0,0,1,.46-6.07l-2-.27a18.4,18.4,0,0,1-.85,5.72c-.67,1.72-3.92,5.14-6.16,3.13-1.91-1.71-.92-5.72-.3-7.83a8.39,8.39,0,0,1,2-3.87c2-1.87,7.42-2,6,2.32-.42,1.23,1.51,1.75,1.92.54Z" transform="translate(-46.77 -235.97)"/><path d="M182.37,290.09a59.31,59.31,0,0,1-10.46,15.75c-.87.94.54,2.36,1.42,1.41A60.93,60.93,0,0,0,184.1,291.1c.53-1.16-1.2-2.18-1.73-1Z" transform="translate(-46.77 -235.97)"/><path d="M170.18,290.59a133.18,133.18,0,0,0,11.94,16.48c.83,1,2.24-.43,1.41-1.41a129.31,129.31,0,0,1-11.62-16.08c-.67-1.09-2.4-.09-1.73,1Z" transform="translate(-46.77 -235.97)"/><path d="M192.18,308a11.37,11.37,0,0,1,.84,6.66c-.22,1.26,1.7,1.8,1.93.53a13.77,13.77,0,0,0-1-8.2c-.53-1.17-2.25-.16-1.73,1Z" transform="translate(-46.77 -235.97)"/><path d="M217.81,284.46c-3.88,5.29-7.32,13-2.12,18.65,4.66,5.1,11.25,2,14.41-3.05,3.37-5.35,3.46-13.32-2.55-16.88a7.71,7.71,0,0,0-11.76,6.5,1,1,0,0,0,2,0c.09-8.52,10.9-6,12.46.38a12.33,12.33,0,0,1-4.82,12.19c-5.23,3.5-10.29-.44-10.43-6.07-.1-4,2.27-7.63,4.53-10.71.76-1-1-2-1.72-1Z" transform="translate(-46.77 -235.97)"/><path d="M243.77,289.24,233.4,304.67c-.72,1.08,1,2.08,1.72,1l10.38-15.43c.72-1.07-1-2.07-1.73-1Z" transform="translate(-46.77 -235.97)"/><path d="M232.41,292.17A87.89,87.89,0,0,1,245.53,306c.76,1,2.5,0,1.72-1a89.88,89.88,0,0,0-13.43-14.28c-1-.83-2.39.58-1.41,1.42Z" transform="translate(-46.77 -235.97)"/><path d="M258.25,283.72c-3.29,5.06-7,11.54-3.3,17.41,2.86,4.51,8.31,4.91,11.95,1.1,3.5-3.65,5.22-10.41,1.42-14.42-4.24-4.48-10.7-2.55-13.83,2.06-.73,1.07,1,2.07,1.73,1,3.38-5,11.92-4.69,12.26,2.33.17,3.54-2.36,8.66-6.05,9.6-5.4,1.37-7.62-5.43-6.78-9.39.67-3.19,2.58-6,4.33-8.69.71-1.09-1-2.09-1.73-1Z" transform="translate(-46.77 -235.97)"/><path d="M277.28,284.44a8.1,8.1,0,0,0-1.36,5.8,1,1,0,0,0,1,1c3.64.33,7.89,2.35,8.11,6.55a5.75,5.75,0,0,1-1.59,4.29c-2.25,2.08-5.43.89-7.85.12-1.23-.4-1.76,1.53-.54,1.92,5.13,1.65,11.42,1.32,11.95-5.4.46-5.78-5-9-10.08-9.48l1,1a6.55,6.55,0,0,1,1.09-4.79c.7-1.09-1-2.09-1.73-1Z" transform="translate(-46.77 -235.97)"/><path d="M277,287a132.74,132.74,0,0,1,16.14-2c1.28-.07,1.29-2.08,0-2a137.5,137.5,0,0,0-16.67,2.07c-1.27.24-.73,2.17.53,1.93Z" transform="translate(-46.77 -235.97)"/><path d="M302.31,284.38a15.27,15.27,0,0,0-9.48,9.38c-1.29,3.74-.83,9,4.13,9.16,3,.1,8.64-2.59,6.87-6.4-2.17-4.66-7.28-.53-9.11,1.86-.78,1,.95,2,1.73,1a10.38,10.38,0,0,1,1.35-1.61q1.43-1.75,3.51,1.52c-.36.71-2.07,1.26-2.78,1.43-2,.48-4.3-1.68-4.38-3.68a8,8,0,0,1,.61-2.76,13.18,13.18,0,0,1,8.08-8c1.2-.43.68-2.36-.53-1.93Z" transform="translate(-46.77 -235.97)"/><path d="M308.93,290.78c-1.5,4.24-1.16,10.06,2.82,12.89,4.46,3.16,10.38.37,12.67-4.05,2.15-4.14,1.52-9.41-2.37-12.28a10.57,10.57,0,0,0-13.32.66c-1,.87.47,2.29,1.41,1.42,6.36-5.86,16.62,1.17,12.55,9.19-1.86,3.67-7.08,6.22-10.48,2.83-2.6-2.59-2.49-6.91-1.35-10.12.43-1.22-1.5-1.74-1.93-.54Z" transform="translate(-46.77 -235.97)"/><path d="M75.54,339.59l1.43,17a1,1,0,0,0,2,0c.46-3.69.89-11.11,4.36-13.43.86-1.71,1.72-1.36,2.56,1,.39,1.08.74,2.17,1,3.28a56.74,56.74,0,0,1,1.66,8.16,1,1,0,0,0,2,.27,52,52,0,0,1,7.87-13.62l-1.57-.21c2,3.12,2.19,6,2,9.64a8.4,8.4,0,0,0,.15,3.7,3.63,3.63,0,0,0,4.66,2.28,1,1,0,0,0-.53-1.93c-3.3.95-2-7.13-2.16-8.67a14.9,14.9,0,0,0-2.39-6,1,1,0,0,0-1.57-.2,55.55,55.55,0,0,0-8.38,14.51l2,.26c-.41-3-1.51-16.61-6.44-15.73-5.58,1-6.69,12.65-7.19,16.68h2l-1.43-17c-.11-1.27-2.11-1.28-2,0Z" transform="translate(-46.77 -235.97)"/><path d="M107.64,342.07c-1.47,4.69-2.91,11.09,1.82,14.51,4.1,3,9.32-.05,11.19-4.14s.72-9.69-3.89-11.52a6.2,6.2,0,0,0-8.52,6c.06,1.29,2.06,1.29,2,0-.25-5.16,6.28-5.7,8.56-1.76,1.75,3,.5,7-2.06,9.13-3.22,2.61-7.14,1.25-8.28-2.67-.88-3,.21-6.18,1.11-9,.38-1.23-1.55-1.75-1.93-.53Z" transform="translate(-46.77 -235.97)"/><path d="M121.83,342.91a79.83,79.83,0,0,0,5.42,16.49,1,1,0,0,0,1.73,0,146.81,146.81,0,0,0,6.93-16.23c.44-1.21-1.49-1.73-1.92-.53a144.8,144.8,0,0,1-6.74,15.75H129a77,77,0,0,1-5.22-16c-.27-1.26-2.2-.72-1.93.54Z" transform="translate(-46.77 -235.97)"/><path d="M163.48,349.11c.35-4.07-4.4-5.47-7.27-3.17-2.71,2.18-5.09,9.33-1.63,11.77,9.92,7,10.7-29.12,10.71-33a1,1,0,0,0-2,0c0,8.21-.06,16.43.09,24.65.08,4.07.43,8.81,5.28,9.57,1.25.19,1.8-1.73.53-1.93-5.56-.87-3.88-13.86-3.9-17.5,0-4.93,0-9.86,0-14.79h-2a124.16,124.16,0,0,1-1.41,18.77c-.37,2.32-.39,6.06-1.56,8.05l-.39,1.52-5,.91a8.91,8.91,0,0,1,.79-3.42c.47-2.45,2.4-2.92,5.76-1.41-.11,1.28,1.9,1.27,2,0Z" transform="translate(-46.77 -235.97)"/><path d="M181.7,340.8c-3.06-4.28-8.81,1.34-8.18,5.25.33,2.06,2.18,2.89,3.93,3.57,2.08.8,4.42,1.61,4.42,4.31,0,3.82-4.82,4.77-6.87,1.84-.73-1-2.46,0-1.72,1,2.6,3.73,8.91,3.81,10.36-1.06a6.11,6.11,0,0,0-1.49-6,8.57,8.57,0,0,0-3.08-1.68c-.64-.25-2.16-.5-2.52-1l-.25-3.64q.94-2.28,3.67-1.61c.75,1,2.48,0,1.73-1Z" transform="translate(-46.77 -235.97)"/><path d="M186.54,358.85l-.24,4.82c-.06,1.28,1.94,1.28,2,0l.24-4.82c.06-1.29-1.94-1.28-2,0Z" transform="translate(-46.77 -235.97)"/><path d="M210.35,344.57a5.31,5.31,0,0,0-8.28-1.91c-3.38,2.67-5.68,9.57-4.49,13.69,1,3.6,5.23,4,7.9,1.84,3.82-3.09,5-9.36,5.29-14,.08-1.15-1.65-1.32-2-.27-1.11,3.73-2.33,8-.55,11.71a7.18,7.18,0,0,0,7.37,4.37c1.25-.16,1.27-2.16,0-2-7.87,1-6.21-9.12-4.89-13.54l-2-.27a24.75,24.75,0,0,1-1.16,6.38,20.59,20.59,0,0,1-1.65,3.83L204.91,356q-1.57,2.44-3.48-.14c-2.59-1.62-2.31-1.6-1.64-4.58a18.63,18.63,0,0,1,1.06-3.35c1.23-2.91,5.32-7.27,7.77-2.32.57,1.15,2.3.14,1.73-1Z" transform="translate(-46.77 -235.97)"/><path d="M228,343a57.06,57.06,0,0,1-12.42,17.15c-.94.89.48,2.3,1.41,1.41A58.43,58.43,0,0,0,229.69,344c.54-1.15-1.18-2.17-1.73-1Z" transform="translate(-46.77 -235.97)"/><path d="M215.07,345.36a125.54,125.54,0,0,0,18,14.37c1.07.71,2.08-1,1-1.73A122.51,122.51,0,0,1,216.49,344c-.93-.9-2.35.52-1.42,1.41Z" transform="translate(-46.77 -235.97)"/><path d="M71.79,383a27.73,27.73,0,0,1,.92,12.38,1,1,0,0,0,1.93.53c1.07-3.11,1.76-7.07,4.11-9.38,2.07-2,1.68-.19,2.14,2a50.15,50.15,0,0,1,.88,6.46c.07.88,1.43,1.51,1.87.51a30.92,30.92,0,0,1,9.93-12.67l-1.47-.6L94.49,399c.18,1.27,2.1.73,1.92-.53L94,381.67a1,1,0,0,0-1.47-.6,32.84,32.84,0,0,0-10.65,13.39l1.86.5c-.21-2.64-.12-12.71-4.37-12.62-1.45,0-2.34,1.37-3,2.51C74.7,388,73.88,392,72.71,395.36l1.93.53a30.11,30.11,0,0,0-.92-13.44,1,1,0,0,0-1.93.53Z" transform="translate(-46.77 -235.97)"/><path d="M101.27,385.84c.61,1.09-.56,2.58-.71,3.67a4.74,4.74,0,0,0,.34,2.55,6.48,6.48,0,0,0,3.28,3.3c3.44,1.55,7-.49,8.25-3.83,1.18-3,.51-7.72-2.92-9-4.08-1.58-5.3,3.67-7.37,5.82-.89.93.52,2.34,1.42,1.41,1.36-1.41,2.06-4.31,3.79-5.19,1.9-1,3.23,1.28,3.54,2.85a6.3,6.3,0,0,1-.73,4.31,4.1,4.1,0,0,1-7.18.1c-1.35-2.38,1.37-4.55,0-6.95a1,1,0,0,0-1.72,1Z" transform="translate(-46.77 -235.97)"/><path d="M115.28,385.17a26.26,26.26,0,0,0,4.93,14.9,1,1,0,0,0,1.72,0,111.44,111.44,0,0,0,8-17.79c.42-1.21-1.51-1.74-1.93-.53a109.42,109.42,0,0,1-7.81,17.31h1.72a24.52,24.52,0,0,1-4.65-13.89,1,1,0,0,0-2,0Z" transform="translate(-46.77 -235.97)"/><path d="M158.14,391.93c-4.38-9-17.33-.92-11.83,6,2.32,2.93,5.66.89,7.31-1.65,3.68-5.65,3.63-14.34,4-20.78.07-1.3-1.88-1.26-2,0a109.73,109.73,0,0,0-.55,14c.08,2.92-.23,6.7,1.18,9.36,1.49,2.82,5.08,3.57,6.92.71.69-1.09-1-2.09-1.73-1-3,.08-4.4-1.19-4.1-3.79l-.12-1.76c-.16-2-.18-4.1-.19-6.15,0-3.81.22-7.61.59-11.4h-2a73.48,73.48,0,0,1-1.69,14.26c-.26,1.05-.57,2.08-.93,3.1-.5,3.2-2.4,3.72-5.71,1.53.31-3.29,2.19-4.81,5.62-4.58a4.86,4.86,0,0,1,3.53,3.11c.56,1.15,2.29.14,1.72-1Z" transform="translate(-46.77 -235.97)"/><path d="M174.7,386.93a25.72,25.72,0,0,0-9.77,12.49c-.44,1.21,1.49,1.73,1.93.53a23.46,23.46,0,0,1,8.85-11.3c1-.72,0-2.45-1-1.72Z" transform="translate(-46.77 -235.97)"/><path d="M164,390.17a61.68,61.68,0,0,1,13.51,10.73c.88.94,2.3-.48,1.41-1.41A63.74,63.74,0,0,0,165,388.44a1,1,0,0,0-1,1.73Z" transform="translate(-46.77 -235.97)"/><path d="M184.86,402.23a8.17,8.17,0,0,1-.58,4.26c-.48,1.19,1.46,1.71,1.93.53a10.28,10.28,0,0,0,.58-5.32c-.18-1.27-2.11-.73-1.93.53Z" transform="translate(-46.77 -235.97)"/><path d="M192,379a1.4,1.4,0,0,1-.1,1.68,1,1,0,0,0,1.73,1,3.36,3.36,0,0,0,.1-3.7c-.68-1.09-2.42-.09-1.73,1Z" transform="translate(-46.77 -235.97)"/><path d="M193.82,378.1a3.14,3.14,0,0,1-.4,2.68c-.7,1.08,1,2.09,1.72,1a5.11,5.11,0,0,0,.61-4.22,1,1,0,0,0-1.93.53Z" transform="translate(-46.77 -235.97)"/><path d="M202.59,380a59.4,59.4,0,0,0,0,17.61c.13.83,1.16.85,1.67.44a21.07,21.07,0,0,0,7.22-10.57l-1.67.44c2,2.46,9.24,13.37,13.13,8.76,1.6-1.88,1.53-5.52,1.64-7.84A39.64,39.64,0,0,0,223,376.21a1,1,0,0,0-1.93.53,37.37,37.37,0,0,1,1.36,14.3l-.39,2.64-3.63.59c-.66-.18-1.7-1.61-2.18-2.1a68.81,68.81,0,0,1-5-5.67,1,1,0,0,0-1.68.44,19.28,19.28,0,0,1-6.7,9.69l1.67.44a56.25,56.25,0,0,1,0-16.54c.19-1.26-1.74-1.81-1.93-.54Z" transform="translate(-46.77 -235.97)"/><path d="M229.4,393.75c2.68-.3,6.66-1.24,7.09-4.47a2.58,2.58,0,0,0-1.58-3c-1.57-.46-2.87.91-3.75,2-2,2.56-4.25,6.72-1.78,9.74,1.8,2.19,5.18,2.8,7,.36.77-1-1-2-1.72-1-.95,1.28-2.91.41-3.7-.59-1.41-1.76-.26-4.23.78-5.86.33-.52,1.09-2.08,1.66-2.19,2.13-.38.65,1.25.18,1.62a8.38,8.38,0,0,1-4.16,1.35c-1.27.14-1.28,2.14,0,2Z" transform="translate(-46.77 -235.97)"/><path d="M242.48,373.7a121,121,0,0,0-1.67,23.58,1,1,0,0,0,1.26,1l3.41-.7c1.26-.26.72-2.19-.53-1.93l-3.41.7,1.27,1a118.55,118.55,0,0,1,1.6-23c.21-1.26-1.71-1.8-1.93-.54Z" transform="translate(-46.77 -235.97)"/><path d="M254.22,387.94c-5.22-4.75-8.79,7.28-6.71,11,1.58,2.82,5,3.46,7.92,2.48,3.91-1.32,5.87-5.32,7.47-8.8l-1.82-.24c.68,3.14,2.25,8.59,5.85,9.52s6.22-2.86,6.53-5.87c.81-7.74-9.29-9.87-12.89-3.59a1,1,0,0,0,1.73,1c2.45-4.29,9.3-3.3,9.22,2.08,0,3.93-5.11,3.86-7,.94a14.11,14.11,0,0,1-1.52-4.62,1,1,0,0,0-1.83-.24c-1.45,3.13-3.13,7.13-6.86,7.9-4.17.86-6.07-2.27-5.26-6,.11-.53,1.71-6,3.75-4.18.95.87,2.37-.54,1.41-1.41Z" transform="translate(-46.77 -235.97)"/><path d="M276.21,391.59l.34,10.73a1,1,0,0,0,2,.27c.85-2.67,1.87-5.78,3.72-7.95l.74-1.06q3.5-1.65,3.64,1.17c.67,1.57.29,4.18,0,5.73a1,1,0,0,0,1.93.53c.46-1.3,4-11,6.59-7.65.49.65.33,3.31.37,4.1l.27,5.3c.06,1.28,2.06,1.29,2,0-.15-2.86,1-11.66-3.1-12.62s-7.05,7.48-8.06,10.34l1.93.53c.49-2.79,1-11.15-3.38-11.33s-7.53,9-8.6,12.38l2,.26-.34-10.73c0-1.28-2-1.29-2,0Z" transform="translate(-46.77 -235.97)"/><path d="M301.62,397.52a8.11,8.11,0,0,0,8.51-6.38c.68-3.64-2.67-5.05-5.24-2.64-2.91,2.74-4.39,9.31-2.92,13,1.79,4.49,6.94,2.84,10.14,1.08,1.13-.62.12-2.35-1-1.73-1.9,1.05-5.41,2.88-7.08.36-1.3-2-.36-5.62.29-7.57.25-.74,1-3.41,2-3.73l1.83,1a5.33,5.33,0,0,1-.72,1.72,6.25,6.25,0,0,1-5.8,2.84c-1.29-.09-1.28,1.91,0,2Z" transform="translate(-46.77 -235.97)"/><path d="M314,379.88l.8,3.4c.3,1.25,2.23.72,1.93-.53l-.8-3.4c-.29-1.25-2.22-.72-1.93.53Z" transform="translate(-46.77 -235.97)"/><path d="M316.14,380.91l.13,5.46a1,1,0,0,0,2,0l-.13-5.46a1,1,0,0,0-2,0Z" transform="translate(-46.77 -235.97)"/><path d="M83,431.35c.55-2.21-1.55-3.62-3.56-2.73-2.84,1.25-5.41,5.36-6,8.27a7.36,7.36,0,0,0,2.31,7.1c3,2.5,6.73.61,9.53-1.29,1.06-.71.06-2.45-1-1.72-1.44,1-3.24,2.31-5.07,2.25-2.25-.08-3.71-2.17-3.88-4.24a7.54,7.54,0,0,1,1.35-4.7,18,18,0,0,1,1.56-2c.15-.17,3.15-2.74,2.84-1.46s1.62,1.78,1.92.53Z" transform="translate(-46.77 -235.97)"/><path d="M96.65,432.61c-.6-2.84-4.07-3.64-6.31-2.14-2.81,1.87-4.44,7.13-3.51,10.28s4.34,3.82,7,2.61c3.9-1.76,4.41-6.45,4.66-10.21l-2,.26c1.12,3.46-1.72,12.41,4.86,12.13,1.29-.05,1.29-2.06,0-2-3,.13-2.79-3.88-2.62-5.79a11.43,11.43,0,0,0-.31-4.87,1,1,0,0,0-2,.27c-.2,3.06-1.38,10.76-6.4,8.56-2.5-1.1-1.38-4.64-.67-6.54a5.8,5.8,0,0,1,1.75-2.81c1.12-.84,3.13-1.1,3.52.78.27,1.26,2.19.72,1.93-.53Z" transform="translate(-46.77 -235.97)"/><path d="M111.31,422.46l.71-3.17-1.93-.53c-.86,5.09-1.75,10.17-2.59,15.27-.54,3.3-1.32,7.16,1,10,2.69,3.35,7.59,2.17,8.08-2.09.15-1.28-1.86-1.27-2,0q-6.81-.17-5.47-4.71a33.14,33.14,0,0,1,.5-3.58c.24-1.5.51-3,.76-4.49l1.68-9.88c.21-1.25-1.64-1.81-1.93-.53l-.7,3.17c-.28,1.25,1.64,1.79,1.92.53Z" transform="translate(-46.77 -235.97)"/><path d="M122,430.86l1-9.45c.12-1.14-1.67-1.33-2-.27-1.7,6.16-6.87,23.95,3.35,25.47,1.26.19,1.81-1.74.54-1.93-8.2-1.22-3.22-18.46-2-23l-2-.26-1,9.45c-.13,1.28,1.87,1.27,2,0Z" transform="translate(-46.77 -235.97)"/><path d="M143.86,431.66a161.58,161.58,0,0,1-3,34.06c-.25,1.25,1.68,1.79,1.92.53a163.91,163.91,0,0,0,3.05-34.59,1,1,0,0,0-2,0Z" transform="translate(-46.77 -235.97)"/><path d="M144,433.88a5.71,5.71,0,0,1,7.93,2.07c1.91,3.71-2.11,8-5.9,7.34-1.26-.21-1.81,1.72-.54,1.93,5,.84,10.19-3.91,8.66-9.1-1.34-4.54-7.3-6.44-11.16-4-1.08.69-.08,2.42,1,1.72Z" transform="translate(-46.77 -235.97)"/><path d="M156.35,444.6c2.85-3.13,6.34-8.13,6.31-12.58,0-3-3.62-3.65-4-.41a5.35,5.35,0,0,0,1.83,4.16c2.31,2.26,5.39,2.47,4.48,6.59-1,4.39,3.18,4.53,5.93,2.53,1-.75,0-2.49-1-1.73-.27.2-.92.82-1.27.82l-1.6-1.52.26-.89a8,8,0,0,0-.06-2.45c-.54-1.6-2-2.58-3.35-3.44a8,8,0,0,1-2.9-2.56c-.63-1-.17-1.37-.55.16a17.83,17.83,0,0,1-.53,1.76,23.84,23.84,0,0,1-4.94,8.15c-.86.95.55,2.37,1.41,1.41Z" transform="translate(-46.77 -235.97)"/><path d="M173.07,433.94c.89,3-.86,6.14.5,9.09.89,1.91,2.6,3.19,4.74,2.63a1,1,0,0,0-.54-1.93c-2.83.75-2.83-3.55-2.65-5.15a12.33,12.33,0,0,0-.12-5.17,1,1,0,0,0-1.93.53Z" transform="translate(-46.77 -235.97)"/><path d="M183.1,434.45A78.79,78.79,0,0,0,182,444.84c-.05,1.21,1.58,1.25,2,.27a20.91,20.91,0,0,1,2.78-5.09,12.93,12.93,0,0,1,1.9-2.28l3.1,1.34c.58,1.2-.54,3.41-.1,4.82.69,2.23,2.07,2.88,4.2,1.93,2.84-1.28,4.05-4.57,4.88-7.35,1.87-6.3,3.22-12.8,4.81-19.18l-2-.27-1.3,14.55c-.29,3.21-1.28,7.41.63,10.32s6.54,3,7.61-.62a1,1,0,0,0-1.93-.53q-5.4-.28-4.74-4.1l.1-1.43c.13-2.13.38-4.25.57-6.37L205.54,419c.1-1.13-1.7-1.34-2-.26-1.55,6.19-2.93,12.45-4.65,18.6-.5,1.77-3.53,9.39-5.47,5.16-.65-1.43.57-3.72-.08-5.4-3-7.77-10.21,4.51-11.37,7.45l2,.26A74.31,74.31,0,0,1,185,435c.22-1.26-1.71-1.8-1.93-.53Z" transform="translate(-46.77 -235.97)"/><path d="M196,430.37a55.14,55.14,0,0,0,16.66-.89c1.26-.26.73-2.19-.53-1.93a53.26,53.26,0,0,1-16.13.82c-1.28-.13-1.27,1.88,0,2Z" transform="translate(-46.77 -235.97)"/><path d="M179.66,424.23l1.38.65a1,1,0,0,0,1.37-.36,1,1,0,0,0-.36-1.37l-1.39-.65a1,1,0,0,0-1.36.36,1,1,0,0,0,.36,1.37Z" transform="translate(-46.77 -235.97)"/><path d="M218.34,447.15l17.79.14a1,1,0,0,0,0-2l-17.79-.14a1,1,0,0,0,0,2Z" transform="translate(-46.77 -235.97)"/><path d="M255.66,441.31c-1.17-11.56-18.31,0-11.47,6.46,3.35,3.15,7.78-.11,9.29-3.38,3.22-7,3.66-16.23,4.35-23.85.11-1.28-1.89-1.27-2,0l-1.34,14.77c-.27,2.94-1.1,6.49,0,9.35,1.27,3.38,5.09,5,7.92,2.42.95-.88-.47-2.29-1.41-1.42-5.24,4.83-4.91-5.25-4.82-6.66.15-2.16.4-4.31.59-6.46l1.09-12h-2a147.43,147.43,0,0,1-2.12,15.08c-.39,2-.74,4-1.32,5.9a7.18,7.18,0,0,1-4,5.31q-6.83-9.1,5.26-5.52c.13,1.27,2.13,1.29,2,0Z" transform="translate(-46.77 -235.97)"/><path d="M275.6,434.4a60.94,60.94,0,0,1-12.07,11.83c-1,.76,0,2.5,1,1.73a65,65,0,0,0,12.79-12.55c.79-1-.95-2-1.73-1Z" transform="translate(-46.77 -235.97)"/><path d="M263.86,435.24c-1.17,2.26,1.14,4.09,2.5,5.68l8.5,9.89c.84,1,2.25-.44,1.42-1.41L270.73,443c-.8-.94-5.72-5.59-5.14-6.7s-1.14-2.15-1.73-1Z" transform="translate(-46.77 -235.97)"/><path d="M74.43,619.8c.54-2.21-1.56-3.62-3.57-2.73-2.83,1.25-5.41,5.36-6,8.27a7.34,7.34,0,0,0,2.31,7.09c3,2.51,6.73.62,9.53-1.28,1.06-.72.06-2.45-1-1.73-1.44,1-3.24,2.32-5.07,2.26-2.25-.08-3.71-2.17-3.88-4.24a7.6,7.6,0,0,1,1.35-4.7,18,18,0,0,1,1.56-2c.15-.17,3.15-2.74,2.84-1.46a1,1,0,0,0,1.93.53Z" transform="translate(-46.77 -235.97)"/><path d="M93.06,621.05c-.6-2.83-4.07-3.63-6.31-2.14-2.81,1.87-4.44,7.14-3.51,10.29s4.35,3.81,7,2.61c3.91-1.76,4.41-6.45,4.66-10.22l-2,.27c1.12,3.46-1.72,12.4,4.86,12.13,1.29-.06,1.29-2.06,0-2-3,.13-2.79-3.89-2.62-5.79a11.43,11.43,0,0,0-.31-4.87,1,1,0,0,0-2,.26c-.2,3.07-1.38,10.76-6.4,8.57-2.5-1.1-1.38-4.64-.67-6.54a5.8,5.8,0,0,1,1.75-2.81c1.12-.84,3.13-1.1,3.52.78.27,1.25,2.2.72,1.93-.54Z" transform="translate(-46.77 -235.97)"/><path d="M107.72,610.91l.71-3.17-1.93-.54c-.86,5.09-1.75,10.18-2.59,15.27-.54,3.31-1.32,7.17,1,10,2.7,3.35,7.59,2.17,8.08-2.1.15-1.27-1.85-1.26-2,0q-6.81-.15-5.47-4.7a33.14,33.14,0,0,1,.5-3.58c.24-1.5.51-3,.77-4.49l1.67-9.88c.21-1.25-1.64-1.81-1.93-.54l-.7,3.18c-.28,1.25,1.64,1.79,1.92.53Z" transform="translate(-46.77 -235.97)"/><path d="M118.41,619.31l1-9.45c.12-1.15-1.67-1.33-2-.27-1.7,6.16-6.87,23.95,3.36,25.47,1.25.19,1.8-1.74.53-1.93-8.2-1.22-3.22-18.46-2-23l-2-.26-1,9.45c-.13,1.28,1.87,1.27,2,0Z" transform="translate(-46.77 -235.97)"/><path d="M140.27,620.1a161.61,161.61,0,0,1-3,34.07c-.25,1.25,1.68,1.79,1.93.53a164.6,164.6,0,0,0,3-34.6,1,1,0,0,0-2,0Z" transform="translate(-46.77 -235.97)"/><path d="M140.39,622.33a5.7,5.7,0,0,1,7.93,2.07c1.91,3.7-2.11,8-5.9,7.34-1.26-.21-1.8,1.71-.54,1.93,5,.84,10.19-3.91,8.66-9.1-1.34-4.54-7.3-6.45-11.16-4-1.08.7-.08,2.43,1,1.73Z" transform="translate(-46.77 -235.97)"/><path d="M152.77,633.05c2.84-3.13,6.34-8.13,6.3-12.58,0-3.05-3.62-3.65-4-.41a5.35,5.35,0,0,0,1.83,4.16c2.31,2.26,5.39,2.47,4.48,6.59-1,4.38,3.18,4.53,5.93,2.53,1-.75,0-2.49-1-1.73-.27.2-.92.82-1.27.82l-1.6-1.53.26-.88a8.12,8.12,0,0,0-.06-2.46c-.54-1.59-2-2.57-3.35-3.43a8,8,0,0,1-2.9-2.56c-.63-1-.17-1.37-.55.16-.14.59-.33,1.18-.53,1.76a23.84,23.84,0,0,1-4.94,8.15c-.86,1,.55,2.37,1.42,1.41Z" transform="translate(-46.77 -235.97)"/><path d="M169.48,622.39c.9,3-.86,6.14.5,9.09.89,1.91,2.6,3.19,4.74,2.63a1,1,0,0,0-.54-1.93c-2.83.75-2.83-3.55-2.65-5.16a12.29,12.29,0,0,0-.12-5.16,1,1,0,0,0-1.93.53Z" transform="translate(-46.77 -235.97)"/><path d="M179.51,622.9a78.61,78.61,0,0,0-1.14,10.39c-.05,1.21,1.58,1.24,2,.27a20.91,20.91,0,0,1,2.78-5.09,12.93,12.93,0,0,1,1.9-2.28l3.11,1.34c.57,1.19-.55,3.41-.11,4.82.69,2.23,2.07,2.88,4.2,1.92,2.84-1.28,4.05-4.56,4.88-7.34,1.87-6.3,3.22-12.8,4.81-19.18l-2-.27L198.65,622c-.29,3.21-1.28,7.41.63,10.32s6.54,3,7.61-.62a1,1,0,0,0-1.93-.53q-5.4-.29-4.74-4.1l.1-1.44c.13-2.12.38-4.24.57-6.36L202,607.48c.1-1.13-1.7-1.34-2-.26-1.55,6.19-2.93,12.45-4.65,18.59-.5,1.78-3.53,9.4-5.47,5.17-.65-1.43.57-3.72-.08-5.4-3-7.77-10.2,4.51-11.37,7.44l2,.27a74.31,74.31,0,0,1,1.07-9.86c.22-1.26-1.71-1.8-1.93-.53Z" transform="translate(-46.77 -235.97)"/><path d="M192.43,618.82a55.12,55.12,0,0,0,16.66-.89c1.26-.26.73-2.19-.53-1.93a53.26,53.26,0,0,1-16.13.82c-1.28-.13-1.27,1.87,0,2Z" transform="translate(-46.77 -235.97)"/><path d="M176.07,612.67l1.38.66a1,1,0,0,0,1.37-.36,1,1,0,0,0-.36-1.37l-1.38-.65a1,1,0,0,0-1.37.36,1,1,0,0,0,.36,1.36Z" transform="translate(-46.77 -235.97)"/><path d="M214.76,635.6l17.78.14a1,1,0,0,0,0-2l-17.78-.14a1,1,0,0,0,0,2Z" transform="translate(-46.77 -235.97)"/><path d="M252.07,629.76c-1.17-11.56-18.31,0-11.47,6.46,3.36,3.15,7.78-.11,9.29-3.38,3.22-7,3.66-16.23,4.35-23.85.12-1.28-1.88-1.27-2,0l-1.34,14.77c-.27,2.94-1.09,6.49,0,9.35,1.27,3.38,5.09,5,7.92,2.42.95-.88-.47-2.29-1.41-1.42-5.24,4.83-4.91-5.25-4.81-6.66.14-2.16.39-4.31.58-6.46l1.09-12h-2a147.43,147.43,0,0,1-2.12,15.08c-.39,2-.74,4-1.32,5.9a7.18,7.18,0,0,1-4,5.31q-6.83-9.1,5.26-5.52c.13,1.27,2.13,1.28,2,0Z" transform="translate(-46.77 -235.97)"/><path d="M272,622.85a61.22,61.22,0,0,1-12.07,11.83c-1,.76,0,2.5,1,1.73a65,65,0,0,0,12.79-12.55c.79-1-.95-2-1.73-1Z" transform="translate(-46.77 -235.97)"/><path d="M260.27,623.69c-1.17,2.26,1.14,4.09,2.5,5.68l8.5,9.89c.84,1,2.25-.44,1.42-1.41l-5.55-6.46c-.8-.93-5.71-5.59-5.14-6.69s-1.14-2.15-1.73-1Z" transform="translate(-46.77 -235.97)"/><path d="M68.47,478.14A60.9,60.9,0,0,1,69.3,490h2a18.09,18.09,0,0,1,.92-6.93c.47-1.3,2.18-5.42,3.53-5.76,4.3-1,4,10.72,4,12.69a1,1,0,0,0,2,.27c1-2.58,6.18-14.85,10.47-12.26.95.57,1.41,5.92,1.61,7a81.71,81.71,0,0,1,1,8.69c.09,1.27,2.09,1.28,2,0a82.4,82.4,0,0,0-2-13.63c-.43-1.77-.72-4.65-2.83-5.24-2.71-.75-5.32,3.18-6.64,4.84a38.17,38.17,0,0,0-5.54,10l2,.26c0-3,0-16.44-5-15.85-2.18.26-4.23,3.8-5.17,5.48A19.5,19.5,0,0,0,69.3,490a1,1,0,0,0,2,0,63.12,63.12,0,0,0-.9-12.36c-.21-1.27-2.14-.73-1.93.53Z" transform="translate(-46.77 -235.97)"/><path d="M100.34,480.27c-1.25,3.78-3.29,9.21.67,12.19,3.53,2.66,7.82-.84,9.5-4s1.34-7.53-2-9.48a5,5,0,0,0-7.35,3.38c-.18,1.26,1.75,1.81,1.93.54.45-3.08,4.16-3.32,5.71-.92s.57,5-1,6.93c-1.89,2.32-5.48,3.79-6.83.15-1-2.65.48-5.72,1.31-8.24.4-1.23-1.53-1.75-1.93-.53Z" transform="translate(-46.77 -235.97)"/><path d="M112,481.26c1.13,3.37,2.25,6.75,3.41,10.11.53,1.54,1.22,3.92,3.25,3.94s2.78-2.44,3.44-4L126.7,480c.48-1.19-1.45-1.71-1.93-.53l-2.63,6.42-1.32,3.21c-.19.48-1.26,3.6-1.56,3.71-1.89.67-4.84-10.61-5.34-12.11-.41-1.21-2.34-.69-1.93.53Z" transform="translate(-46.77 -235.97)"/><path d="M153.89,485.94c-1-3.9-5.84-4.69-8.79-2.29-2.48,2-4.9,9.41-2.66,12.18,3.11,3.84,7.72-1.52,8.8-4.24,3.25-8.14,2.65-18.92,2.32-27.48,0-1.06-1.8-1.43-2-.26-.58,4.19-4.82,36.29,6.74,30,1.13-.62.12-2.35-1-1.73-5.45,3-4.88-11.88-4.87-13.51a106.93,106.93,0,0,1,1.07-14.19l-2-.27a118.58,118.58,0,0,1-1,21.31c-.43,3-.93,9-4.84,8.12-1.74.36-2.33-.19-1.79-1.65l.32-2.45c.54-2.07,6-9.56,7.7-3,.31,1.24,2.24.71,1.93-.54Z" transform="translate(-46.77 -235.97)"/><path d="M170.68,481.22a58.62,58.62,0,0,1-9.78,15.14c-.85,1,.56,2.38,1.42,1.42a60.4,60.4,0,0,0,10.08-15.56c.52-1.16-1.2-2.18-1.72-1Z" transform="translate(-46.77 -235.97)"/><path d="M161.16,483.84a53.06,53.06,0,0,1,9.17,13.55c.55,1.16,2.27.15,1.73-1a55,55,0,0,0-9.48-13.95c-.88-.94-2.29.47-1.42,1.41Z" transform="translate(-46.77 -235.97)"/><path d="M181.06,496.92l.72,1.35c.6,1.14,2.33.13,1.73-1l-.72-1.35c-.6-1.14-2.33-.13-1.73,1Z" transform="translate(-46.77 -235.97)"/><path d="M196.29,475.77a.75.75,0,0,1-.31.9,1,1,0,0,0,1,1.73,2.77,2.77,0,0,0,1.23-3.16c-.38-1.23-2.31-.7-1.93.53Z" transform="translate(-46.77 -235.97)"/><path d="M197.51,474.14a7.93,7.93,0,0,0,.89,4.59c.6,1.15,2.32.14,1.73-1a6.06,6.06,0,0,1-.62-3.58c.14-1.27-1.86-1.26-2,0Z" transform="translate(-46.77 -235.97)"/><path d="M219.87,470.5l.53-1.88-1.92-.53-2,13c-.49,3.15-1.43,6.52-1.2,9.71.28,3.69,2.8,6.54,6.63,5.66,1.25-.29.72-2.22-.53-1.93-6.45,1.49-3.05-12.43-2.68-14.77l1.74-11.18c.2-1.24-1.56-1.8-1.92-.53l-.54,1.88a1,1,0,0,0,1.93.53Z" transform="translate(-46.77 -235.97)"/><path d="M213,484.74a23.41,23.41,0,0,0,7.77-.74,1,1,0,0,0-.53-1.93,21.57,21.57,0,0,1-7.24.67c-1.29-.09-1.28,1.91,0,2Z" transform="translate(-46.77 -235.97)"/><path d="M227,481.34c-3.22,2.93-4.08,8.16-1.39,11.75,2.57,3.43,7.9,3.68,11.11,1,3.68-3.09,2.88-9.54,0-12.94-2.55-3-7.83-3.21-9.23,1-.41,1.22,1.52,1.74,1.93.53a3,3,0,0,1,3.94-1.63c1.84.64,2.84,2.73,3.34,4.46,1,3.29.42,6.93-3.21,8.1-6.86,2.23-9.67-6.65-5.08-10.84,1-.87-.46-2.28-1.41-1.41Z" transform="translate(-46.77 -235.97)"/><path d="M247.3,472.66l-.62,2.07a1,1,0,0,0,1.93.53l.61-2.07a1,1,0,0,0-1.92-.53Z" transform="translate(-46.77 -235.97)"/><path d="M250.06,473l-2.48,4.25a1,1,0,0,0,1.73,1l2.48-4.26a1,1,0,0,0-1.73-1Z" transform="translate(-46.77 -235.97)"/><path d="M179.39,499.45a2.7,2.7,0,0,1,.58,4.39c-1,.85.45,2.26,1.41,1.42a4.71,4.71,0,0,0-1-7.53c-1.15-.57-2.17,1.16-1,1.72Z" transform="translate(-46.77 -235.97)"/><path d="M76.35,522.51a4.21,4.21,0,0,0-5.66-2.4c-2.59,1.06-3.77,4.16-4.07,6.74-.34,2.89.4,6.14,2.82,8a6.21,6.21,0,0,0,7.5.2c1-.77,0-2.51-1-1.73-3.33,2.51-7-.65-7.36-4.2a9.65,9.65,0,0,1,.42-3.85,6.09,6.09,0,0,1,1.44-2.59c1.07-1,3.27-1.52,4,.37.45,1.19,2.38.67,1.93-.53Z" transform="translate(-46.77 -235.97)"/><path d="M94.58,528.24a3.38,3.38,0,0,0,.38-6.15c-3.83-2-6.79,2.19-7.82,5.27-.82,2.45-2.7,8.54,1.24,9.37,4.19.89,8.15-5.24,9.93-8.16l-1.83-.77a7,7,0,0,0,6.4,9.33,1,1,0,0,0,0-2,5,5,0,0,1-4.47-6.8c.41-1.08-1.25-1.71-1.83-.77-.75,1.25-7.29,10.44-8.59,5.66-.3-1.13.47-3.27.79-4.39a9.62,9.62,0,0,1,1.16-3,2.44,2.44,0,0,1,1.33-1.27q1.91-2.36,2.78,1.71c-1.17.49-.66,2.42.53,1.93Z" transform="translate(-46.77 -235.97)"/><path d="M113.59,508.39l-1-2.06a1,1,0,0,0-1.83.24,174.87,174.87,0,0,0-3.27,21.24c-.25,3-.81,7.72,3,8.82,2.91.84,5.37-1.6,6.52-4,2.95-6.11,2.89-14.68,3.92-21.31.2-1.24-1.64-1.81-1.92-.53-.92,4.19-4.68,31.49,6.76,25.37,1.13-.61.12-2.34-1-1.73-4.65,2.49-5-5.1-5.15-6.94-.12-1.53-.13-3.07-.1-4.6a58.57,58.57,0,0,1,1.42-11.57l-1.92-.53-1.83,11.69c-.28,1.78-.5,3.6-.85,5.37a14.53,14.53,0,0,1-.5,2.17q-.67,3.75-6.53,1c-1.09-2.14,1-10.4,1.34-12.57.57-3.82,1.28-7.61,2.08-11.39l-1.83.24,1,2.06c.55,1.16,2.27.15,1.72-1Z" transform="translate(-46.77 -235.97)"/><path d="M141,528.16a274.7,274.7,0,0,1-4.8,34c-.26,1.26,1.66,1.8,1.92.53A277.59,277.59,0,0,0,143,528.16c.1-1.28-1.9-1.27-2,0Z" transform="translate(-46.77 -235.97)"/><path d="M139.18,527.42c2.54-4,8.71-3.55,10.13,1.16s-3.51,8.52-7.82,6.54c-1.16-.54-2.18,1.19-1,1.72,5.85,2.7,12.65-2.31,10.75-8.79s-10.32-7.08-13.78-1.64c-.69,1.09,1,2.09,1.73,1Z" transform="translate(-46.77 -235.97)"/><path d="M153.73,539.33a55.14,55.14,0,0,0,6.78-12.08,1,1,0,0,0-.46-1.12,2.84,2.84,0,0,0-4.31,1.79,1,1,0,0,0,.69,1.23,6.72,6.72,0,0,1,3.48,9,1,1,0,0,0,.6,1.47,5.47,5.47,0,0,0,6-2.71,1,1,0,0,0-1.73-1,3.38,3.38,0,0,1-3.77,1.79l.6,1.47A8.76,8.76,0,0,0,157,527.22l.69,1.23,1.38-.6-.46-1.13a53.38,53.38,0,0,1-6.58,11.6c-.77,1,1,2,1.73,1Z" transform="translate(-46.77 -235.97)"/><path d="M167.54,528.9a17.26,17.26,0,0,0,2.56,11.59c.69,1.09,2.42.08,1.73-1a15.51,15.51,0,0,1-2.29-10.58c.17-1.27-1.83-1.25-2,0Z" transform="translate(-46.77 -235.97)"/><path d="M175.38,528.35a21.15,21.15,0,0,0,0,12.6,1,1,0,0,0,1.93,0,16.83,16.83,0,0,1,4.57-7.25c1.2-1.09,1.23-1.46,2.71-.41a2.78,2.78,0,0,1,1.57,2.38c.37,1.74.28,3.45.53,5.18.33,2.33,3.13,4.93,5.09,2.4.78-1-.62-2.43-1.41-1.41L188.59,540c0-.47,0-.94-.05-1.41s-.09-1.15-.17-1.73a17.94,17.94,0,0,0-1.07-4.27c-.67-1.66-1.8-2.78-3.7-2.34-4.12,1-7,6.57-8.25,10.18h1.93a19.25,19.25,0,0,1,0-11.54c.38-1.23-1.55-1.76-1.93-.53Z" transform="translate(-46.77 -235.97)"/><path d="M198.38,524.78l.19-9.37c0-1.11-1.75-1.39-2-.27-.84,4.35-1.52,8.72-1.95,13.13-.4,4.05-1.46,9.37-.41,13.36,1.54,5.86,7.34,2.5,9.77-.63.78-1-.63-2.44-1.41-1.42q-2,3.66-6.56-.19c0-1.23.05-2.47.1-3.71.07-1.86.19-3.71.34-5.56a137.65,137.65,0,0,1,2.05-14.45l-2-.26-.19,9.37a1,1,0,0,0,2,0Z" transform="translate(-46.77 -235.97)"/><path d="M188.11,527.45a79.31,79.31,0,0,0,15.2-2.72,1,1,0,0,0-.54-1.93,75.93,75.93,0,0,1-14.66,2.65c-1.27.11-1.28,2.11,0,2Z" transform="translate(-46.77 -235.97)"/><path d="M172.07,515.12l.7.66c.94.89,2.35-.52,1.42-1.41l-.7-.67c-.93-.89-2.35.53-1.42,1.42Z" transform="translate(-46.77 -235.97)"/><path d="M209.66,542.57l15-.36a1,1,0,0,0,0-2l-15,.36a1,1,0,0,0,0,2Z" transform="translate(-46.77 -235.97)"/><path d="M236.3,535.89c-.7-3.07-2.87-7.79-6.85-5.63-2.93,1.6-4.37,7.94-2.38,10.64s4.74,1.7,6.13-.74c3.51-6.22,2.81-15.44,1.18-22-.27-1.07-2.06-.87-2,.27l1,12.41c.24,2.92.12,6.17,1,9,1,3.14,4.05,5.1,7.09,3.23,1.1-.67.1-2.4-1-1.72-5,3.05-5.14-10.47-5.28-12.25l-.88-10.64-2,.27a34.65,34.65,0,0,1,.44,15.72q-.25,1.27-.63,2.52-.58,4.3-3.69-1.34c.24-2.18,1.84-2.91,4.81-2.17a10.81,10.81,0,0,1,1,3c.29,1.26,2.22.72,1.93-.53Z" transform="translate(-46.77 -235.97)"/><path d="M251.78,528.26A64,64,0,0,0,243.87,541c-.55,1.16,1.18,2.18,1.72,1a62,62,0,0,1,7.61-12.35c.79-1-.62-2.42-1.42-1.41Z" transform="translate(-46.77 -235.97)"/><path d="M241.4,529.27a123.6,123.6,0,0,1,13.39,14c.82,1,2.22-.43,1.41-1.42a123.51,123.51,0,0,0-13.39-14c-.95-.86-2.37.55-1.41,1.41Z" transform="translate(-46.77 -235.97)"/><path d="M68.74,572.47l2.66,11.6a1,1,0,0,0,1.93,0c.52-2.13,2.69-10.05,5.45-11,3.6-1.17,4.3,9.72,4.36,11.56a1,1,0,0,0,2,.26c.35-1.06,2-7.13,3.6-7.67,1.77-.62,2.32,2.13,2.55,3a33.2,33.2,0,0,1,.4,5.1c.1,1.28,2.11,1.29,2,0-.16-2.11.81-11.85-3.2-12.06s-6.42,8.44-7.28,11.06l2,.27c-.11-3.15-.73-13.78-5.12-14.29-4.65-.54-7.84,9.93-8.62,13.15h1.93l-2.67-11.6c-.28-1.25-2.21-.72-1.92.53Z" transform="translate(-46.77 -235.97)"/><path d="M98,574.53c-1.74,3.84-2.79,9.15,1.29,12,3.24,2.26,7.31.22,8.63-3.23s-.55-9.38-4.05-11.07c-4.14-2-5.67,4.83-5.79,7.54-.06,1.29,1.94,1.29,2,0,.08-1.79.94-7.16,3.84-4.9,2,1.57,3,5.54,2.08,7.77-1.13,2.83-4.36,3.93-6.48,1.31-2-2.47-1-5.81.21-8.39.53-1.16-1.2-2.18-1.73-1Z" transform="translate(-46.77 -235.97)"/><path d="M111.22,575a40.11,40.11,0,0,0,4.87,13.9,1,1,0,0,0,1.57.2,21.19,21.19,0,0,0,6.73-11.78c.25-1.25-1.68-1.79-1.93-.53a19.39,19.39,0,0,1-6.21,10.9l1.57.2a38.47,38.47,0,0,1-4.67-13.42c-.2-1.27-2.12-.73-1.93.53Z" transform="translate(-46.77 -235.97)"/><path d="M146.7,581.91c-.49.05-2.28-3.44-3.44-3.81a4.44,4.44,0,0,0-4,.95c-2.47,2.12-2.46,8.77.37,10.66,3.51,2.33,6.86-4.33,8-6.67,2.8-5.93,3.17-12.73,3.47-19.17.06-1.29-1.94-1.28-2,0l-.55,11.94c-.15,3.15-1.14,7.72-.22,10.78.74,2.5,3,4.07,5.4,2.46,1.06-.72.06-2.45-1-1.73-3.26,2.21-2.46-5.26-2.45-5.55.08-2,.18-4,.28-6l.55-11.94h-2c-.32,7-.67,14.6-4.55,20.64-1.08,1.67-2.54,4.68-4.54,1.83q-2-4.5,3.73-4.9l.3,1c1.25.91.88,1.59,2.7,1.42,1.27-.12,1.29-2.12,0-2Z" transform="translate(-46.77 -235.97)"/><path d="M164.82,577.2l-9.74,12.85c-.78,1,.95,2,1.72,1l9.74-12.85c.78-1-.95-2-1.72-1Z" transform="translate(-46.77 -235.97)"/><path d="M155.08,579.16q6.49,6.15,12.52,12.77c.86,1,2.28-.47,1.41-1.42q-6-6.6-12.51-12.77c-.93-.89-2.35.53-1.42,1.42Z" transform="translate(-46.77 -235.97)"/><path d="M175.66,591.58l.05,2a1,1,0,0,0,2,0l-.05-2a1,1,0,0,0-2,0Z" transform="translate(-46.77 -235.97)"/><path d="M186.27,570.61a3.3,3.3,0,0,1,.58,2.65c-.27,1.25,1.66,1.79,1.93.53a5.35,5.35,0,0,0-.78-4.19c-.73-1.05-2.46-.05-1.73,1Z" transform="translate(-46.77 -235.97)"/><path d="M188.14,570.09l.12,4.78a1,1,0,0,0,2,0l-.12-4.78a1,1,0,0,0-2,0Z" transform="translate(-46.77 -235.97)"/><path d="M210.4,577.2c1.44-6.2-6.82-6.5-9.2-1.8-1.63,3.22-.11,5.43,2.14,7.72a17.14,17.14,0,0,1,2.91,3.5,4.88,4.88,0,0,1,.88,3.53q.68,4.56-4.81-1.26c.15-1.31,2.57-3.48,3.36-4.48,1-1.24,2-2.48,3-3.73.8-1-.61-2.42-1.41-1.41-2.69,3.33-7.54,7.55-7.89,12.12a4.41,4.41,0,0,0,5.18,4.89,5.71,5.71,0,0,0,4.72-5.55,9.26,9.26,0,0,0-1.32-5.12,16.34,16.34,0,0,0-2.25-2.92c-.46-.51-.95-1-1.46-1.47q-3.34-2.6,4.21-4.55c-.29,1.25,1.63,1.78,1.93.53Z" transform="translate(-46.77 -235.97)"/><path d="M216.08,578.55c-2.05,4.18-4.23,9.65-1.33,14,2.07,3.1,6.44,4.86,9.6,2.28,6.94-5.66,1.44-19.74-7.9-16.27-1.2.44-.68,2.38.53,1.93a6.16,6.16,0,0,1,8.1,4.22c.81,2.76.32,7.4-2.49,8.94-3,1.63-6.28-1.3-7-4.08-.89-3.41.76-7,2.23-10,.56-1.16-1.16-2.17-1.73-1Z" transform="translate(-46.77 -235.97)"/><path d="M238.47,581.85c2.25-4.53-5.21-6.89-6.57-1.66-.87,3.37,1.72,5.85,3.82,8,.71.75,4,3.82,3.09,4.82l-4.35-.2a7.94,7.94,0,0,1,1.2-3.58c1.27-2.4,3-4.66,4.53-6.92.71-1.08-1-2.08-1.73-1-2.23,3.36-6.69,8-5.9,12.4.39,2.23,2.39,4.46,4.84,4s3.7-3.24,3.3-5.56a8.2,8.2,0,0,0-1.94-3.71c-.74-.92-1.67-1.65-2.47-2.51a11.91,11.91,0,0,1-2-2.5q-2.07-4.28,2.47-2.67c-.57,1.15,1.15,2.16,1.73,1Z" transform="translate(-46.77 -235.97)"/><path d="M250.57,578.36c-4.61,1.8-6.47,6.43-7.09,11.06s1.27,8,6.36,6.6c2.79-.76,6.44-4.22,2.87-6.69-4.26-3-7.16,2.54-8.05,5.81a1,1,0,0,0,1.92.53,14.23,14.23,0,0,1,1.06-3,2.28,2.28,0,0,1,1.76-1.58q1.89-1.38,2.26,1.88c-.27.57-2.35,1.27-3.12,1.34-3,.26-3.18-.95-3.23-3.09-.1-4,1.83-9.34,5.79-10.9,1.19-.46.67-2.4-.53-1.92Z" transform="translate(-46.77 -235.97)"/><path d="M259.49,597.14l.7.67c.93.89,2.35-.53,1.41-1.42l-.7-.66c-.93-.89-2.35.52-1.41,1.41Z" transform="translate(-46.77 -235.97)"/><path d="M268.09,589.36l.16,13.95c0,2.16.17,4.35.08,6.51q.74,4.6-4.39,1.36a14.47,14.47,0,0,1-.19-3.66c.05-1.28-1.95-1.28-2,0-.08,2.39-.08,5.26,1.92,6.94a3.84,3.84,0,0,0,5.28.09c2.08-2,1.37-5.92,1.34-8.45l-.2-16.74a1,1,0,0,0-2,0Z" transform="translate(-46.77 -235.97)"/><path d="M269,579.11l0,.68a1,1,0,0,0,2,0l0-.68a1,1,0,0,0-2,0Z" transform="translate(-46.77 -235.97)"/><path d="M284.88,588c.29-1.39.83-.71.13-1.86a2.5,2.5,0,0,0-.89-.82,4,4,0,0,0-2.76-.51c-2.53.41-4.18,3.28-4.9,5.5a3.15,3.15,0,0,0,2,4.27c.54.22,1.13.29,1.67.49,1.24.45,1.52.47,1.19,1.66-.58,2.07-3.89,2.61-5.47,1.89-1.16-.54-2.17,1.18-1,1.72a6.23,6.23,0,0,0,6.9-1c1.5-1.34,2.88-3.81.94-5.31-1-.73-2.11-.7-3.15-1.2-2.49-1.19.55-6.95,3.05-6,1.43.53.92,2.68,2.52,3a1.45,1.45,0,0,0,1.73-1.22c.26-1.25-1.67-1.79-1.93-.53Z" transform="translate(-46.77 -235.97)"/><path d="M291.43,577.9l.24,4.09c.08,1.28,2.08,1.29,2,0l-.24-4.09c-.08-1.28-2.08-1.29-2,0Z" transform="translate(-46.77 -235.97)"/><path d="M294.38,578a8.58,8.58,0,0,0-.55,5.6c.29,1.26,2.22.73,1.92-.53a6.37,6.37,0,0,1,.35-4.06c.52-1.16-1.2-2.18-1.72-1Z" transform="translate(-46.77 -235.97)"/><path d="M361.64,355.57A301.43,301.43,0,0,0,369,292.65c.11-10.7-.32-21.41-1.27-32.07-.46-5.12-.66-10.55-1.75-15.58a10.48,10.48,0,0,0-3.54-6.42,12.66,12.66,0,0,0-7.21-2.54c-5.54-.34-11.41.68-17,1q-16,1-32.05,1.67c-21.87,1-43.78,2.16-65.68,2.13-42.68-.07-85.63-4.57-128.26-1.39C94,240.83,75.19,244.15,59,253.26c-2.82,1.6-3.74,4.5-5,7.44a70.36,70.36,0,0,0-4.26,14.15c-1.68,8.51-2.09,17.22-2.31,25.87-.53,20.59-1.24,41-.07,61.61,1.21,21.17,3.67,42.39,3.59,63.61-.15,43.76-2.71,87.45-3.81,131.18-.53,21.27-.35,42.7,1.14,63.94.71,10.15,2,20.18,3.4,30.25,1.06,7.54-.64,15.75,2,23,2.13,5.9,7.21,9.33,13.36,10,9.32,1,19.48-.68,28.81-1.2q33.1-1.83,66.23-3.25,65.35-2.79,130.76-3.64,16.68-.19,33.35-.24c7.8,0,15.69,1.21,21.46-5,6.24-6.77,6.85-16.84,8.05-25.47,1.38-10,2.5-20,3.43-30.11,1-10.37,1.71-20.75,2.39-31.14.08-1.28-1.92-1.28-2,0-1.33,20.29-3,40.57-5.75,60.71-1.32,9.56-2,23-12,27.87-4.27,2.07-10,1.17-14.65,1.18q-7.85,0-15.69.08-60.92.42-121.81,2.71-30.58,1.13-61.16,2.64-15.82.78-31.66,1.66c-8.86.49-17.87,1.5-26.74,1.4-11.74-.14-15.68-8.19-15.87-18.68-.14-8.34-1.21-16.15-2.21-24.45-2.43-20-2.93-40.09-3-60.18-.19-40.3,2.47-80.58,3.48-120.86.51-20.22.62-40.31-.7-60.5-1.29-19.82-3.08-39.63-3.25-59.51-.09-9.51.5-19,.72-28.48.2-8.59.22-17.2,1.15-25.74S52.82,264,58,257c2.8-3.78,9.57-5.81,13.75-7.39a112.68,112.68,0,0,1,13.33-4.09c18.65-4.52,38.06-4.89,57.16-4.91,20.07,0,40.13.83,60.19,1.49,40.48,1.33,80.8-.06,121.23-2.18,10-.52,20.31-2.09,30.3-1.89,6.52.13,9.49,3.53,10.38,9.92.72,5.17,1.2,10.38,1.61,15.58a309.69,309.69,0,0,1-.9,60.12A295.82,295.82,0,0,1,359.71,355c-.28,1.25,1.64,1.78,1.93.53Z" transform="translate(-46.77 -235.97)"/></g><g id="Layer_1" data-name="Layer 1"><path d="M358.9,549.07a39.35,39.35,0,0,1-16.63-15.23A43.86,43.86,0,0,1,336.41,511v-2.58a44,44,0,0,1,5.86-22.06,39.25,39.25,0,0,1,15.66-15.61,34.2,34.2,0,0,1-13.29-13.08,35.12,35.12,0,0,1-5-18v-3.76a41.73,41.73,0,0,1,5.49-21.59,37.26,37.26,0,0,1,15.5-14.42q10-5.11,23.25-5.11t23.25,5.11a37.26,37.26,0,0,1,15.5,14.42,41.73,41.73,0,0,1,5.49,21.59v3.76A34.75,34.75,0,0,1,423,457.79a34.06,34.06,0,0,1-13.51,12.92,40.6,40.6,0,0,1,15.87,15.66,43,43,0,0,1,6,22V511a43.87,43.87,0,0,1-5.87,22.88,39.35,39.35,0,0,1-16.63,15.23q-10.75,5.38-25,5.38T358.9,549.07Zm38.43-18.73a21.75,21.75,0,0,0,9-8.45,24.35,24.35,0,0,0,3.18-12.54v-1.51a24.57,24.57,0,0,0-3.18-12.64,21.69,21.69,0,0,0-9-8.45,31.48,31.48,0,0,0-26.91,0,21.64,21.64,0,0,0-9,8.5,24.87,24.87,0,0,0-3.18,12.7v1.62a24.08,24.08,0,0,0,3.18,12.48,21.46,21.46,0,0,0,9,8.34,29.15,29.15,0,0,0,13.45,3A28.83,28.83,0,0,0,397.33,530.34Zm-1.83-70.56a19.7,19.7,0,0,0,7.85-8.12,25.52,25.52,0,0,0,2.8-12.16V438a23.6,23.6,0,0,0-2.8-11.63,19.33,19.33,0,0,0-7.85-7.8,26,26,0,0,0-23.25,0,19.36,19.36,0,0,0-7.86,7.8,23.84,23.84,0,0,0-2.8,11.74v1.61a25,25,0,0,0,2.8,12,19.78,19.78,0,0,0,7.86,8.07,25.06,25.06,0,0,0,23.25,0Z" transform="translate(-46.77 -235.97)"/><path d="M464.55,542.72Q453.2,531,453.2,510V438.85q0-21.09,11.41-32.78t33.26-11.67q21.95,0,33.31,11.62t11.35,32.83V510q0,21.09-11.41,32.77t-33.25,11.68Q475.91,554.45,464.55,542.72ZM515,527.49q5.55-6.09,5.55-17.49V438.85q0-11.42-5.49-17.49t-17.22-6.08q-11.75,0-17.23,6.08t-5.49,17.49V510q0,11.4,5.55,17.49t17.17,6.08Q509.5,533.57,515,527.49Z" transform="translate(-46.77 -235.97)"/><path d="M586.89,549.07a39.35,39.35,0,0,1-16.63-15.23A43.87,43.87,0,0,1,564.39,511v-2.58a44,44,0,0,1,5.87-22.06,39.25,39.25,0,0,1,15.66-15.61,34.07,34.07,0,0,1-13.29-13.08,35.12,35.12,0,0,1-5-18v-3.76a41.73,41.73,0,0,1,5.49-21.59,37.26,37.26,0,0,1,15.5-14.42q10-5.11,23.25-5.11t23.25,5.11a37.26,37.26,0,0,1,15.5,14.42,41.73,41.73,0,0,1,5.49,21.59v3.76A34.67,34.67,0,0,1,651,457.79a34,34,0,0,1-13.5,12.92,40.6,40.6,0,0,1,15.87,15.66,43.11,43.11,0,0,1,6,22V511a43.87,43.87,0,0,1-5.87,22.88,39.41,39.41,0,0,1-16.63,15.23q-10.77,5.38-25,5.38T586.89,549.07Zm38.42-18.73a21.78,21.78,0,0,0,9-8.45,24.35,24.35,0,0,0,3.18-12.54v-1.51a24.57,24.57,0,0,0-3.18-12.64,21.71,21.71,0,0,0-9-8.45,31.48,31.48,0,0,0-26.91,0,21.61,21.61,0,0,0-9,8.5,24.87,24.87,0,0,0-3.18,12.7v1.62a24.08,24.08,0,0,0,3.18,12.48,21.44,21.44,0,0,0,9,8.34,29.2,29.2,0,0,0,13.46,3A28.79,28.79,0,0,0,625.31,530.34Zm-1.83-70.56a19.72,19.72,0,0,0,7.86-8.12,25.52,25.52,0,0,0,2.8-12.16V438a23.6,23.6,0,0,0-2.8-11.63,19.36,19.36,0,0,0-7.86-7.8,26,26,0,0,0-23.25,0,19.33,19.33,0,0,0-7.85,7.8,23.84,23.84,0,0,0-2.8,11.74v1.61a25,25,0,0,0,2.8,12,19.75,19.75,0,0,0,7.85,8.07,25.06,25.06,0,0,0,23.25,0Z" transform="translate(-46.77 -235.97)"/><path d="M698,548.91a36,36,0,0,1-14.9-16.15Q678,522.16,678,507.2v-.11a88,88,0,0,1,2-18.3A106.09,106.09,0,0,1,685.92,470c.43-1.08.9-2.14,1.4-3.18s1-2.06,1.51-3.07l34-67.38h23.68l-39.94,78,.11-3.88a18.88,18.88,0,0,1,7.86-7.85,24.85,24.85,0,0,1,12.05-2.8q12.17,0,20.89,5.49a34.25,34.25,0,0,1,13.23,16q4.53,10.5,4.53,25.24v.11q0,15.07-5.12,25.83a36,36,0,0,1-15,16.36q-9.84,5.6-23.62,5.6T698,548.91Zm39.67-22q5.64-6.45,5.65-18.4v-.11q0-13.12-5.92-20.29t-16.9-7.16q-9.79,0-15.18,7.22t-5.38,20.34v.11q0,11.94,5.65,18.35t16,6.4Q732,533.35,737.64,526.89Z" transform="translate(-46.77 -235.97)"/><path d="M782.8,529.8h23v23h-23Z" transform="translate(-46.77 -235.97)"/><path d="M812.62,577.38h12.27a5.56,5.56,0,0,0,4.69-2.21,10.3,10.3,0,0,0,1.66-6.3V441.11h22V568.66q0,14.1-6.83,21.85T827,598.26H812.62Zm18.41-181h22.39v22H831Z" transform="translate(-46.77 -235.97)"/><path d="M907.56,554.45l-8.66-1.94a67.39,67.39,0,0,1-16.2-5.81A63.2,63.2,0,0,1,868.82,537l13-16a73.57,73.57,0,0,0,18,10.34,49,49,0,0,0,17.66,3.44q13,0,19.53-4t6.51-12.1q0-5.39-3.55-8.08a20.1,20.1,0,0,0-8.82-3.6q-5.28-.92-14.86-1.67c-.57,0-1.18,0-1.83-.05s-1.25-.09-1.83-.17a6.2,6.2,0,0,1-.86-.05,8.27,8.27,0,0,0-.86-.05,86.69,86.69,0,0,1-18.4-3.18A24.94,24.94,0,0,1,880,493.1q-5-6.36-5-18.19t4.84-19.7a29.46,29.46,0,0,1,14.43-11.79q9.57-3.92,24-3.92a82.74,82.74,0,0,1,16.63,1.61A74.39,74.39,0,0,1,950,445.9a75.34,75.34,0,0,1,13.89,8l-13.24,16a74.12,74.12,0,0,0-16.52-8.08,50.47,50.47,0,0,0-15.88-2.69q-11.19,0-16.79,3.82t-5.6,11.47a7.78,7.78,0,0,0,3.18,6.78,18.58,18.58,0,0,0,8,3c3.22.5,7.82.93,13.77,1.29a8.39,8.39,0,0,0,1.35.11,10.56,10.56,0,0,1,1.45.11h.65a1.8,1.8,0,0,1,.64.11,95.12,95.12,0,0,1,20,3.12,26.94,26.94,0,0,1,13.83,9.36q5.59,7,5.6,20.24,0,12-5.17,20t-15.55,11.9q-10.4,4-26.1,4Z" transform="translate(-46.77 -235.97)"/></g></svg>