<svg width="1400" height="771" viewBox="0 0 1400 771" fill="none" xmlns="http://www.w3.org/2000/svg">
<mask id="mask0" style="mask-type:alpha" maskUnits="userSpaceOnUse" x="0" y="0" width="1400" height="771">
<rect width="1400" height="771" fill="#17AE93"/>
</mask>
<g mask="url(#mask0)">
<rect width="1400" height="616" fill="#005062"/>
<g style="mix-blend-mode:multiply">
<path fill-rule="evenodd" clip-rule="evenodd" d="M1416 511.49C1302.43 575.557 1138.74 588.476 982.84 542.974C849.359 504.026 793.52 501.006 694.341 524.41C528.41 573.907 430.493 583.652 280.84 539.974C111.27 490.495 32.4915 503.021 -99.9396 550.246C-99.9799 548.007 -100 545.768 -100 543.528C-100 475.846 -83.5296 412.017 -54.3976 355.82C48.4216 324.359 127.059 321.232 272.329 363.63C423.028 418.548 537.724 392.141 647.375 359.259C647.451 359.112 647.527 358.966 647.602 358.82C750.422 327.359 829.059 324.232 974.329 366.63C1113.53 407.258 1284 417.5 1416 316.5C1432.34 346.992 1426.42 394.024 1420.84 438.471C1417.49 465.112 1414.25 490.824 1416 511.49Z" fill="#D1E6EE"/>
</g>
<path fill-rule="evenodd" clip-rule="evenodd" d="M731.341 797.91C565.41 847.407 467.493 857.152 317.84 813.474C148.27 763.995 69.4915 776.521 -62.9396 823.746C-62.9799 821.507 -63 819.268 -63 817.028C-63 780.701 -58.2552 745.484 -49.3545 711.961C-53.8224 713.514 -58.3488 715.109 -62.9396 716.746C-62.9799 714.507 -63 712.268 -63 710.028C-63 642.346 -46.5296 578.517 -17.3976 522.32C85.4216 490.859 164.059 487.732 309.329 530.13C460.028 585.048 574.724 558.641 684.375 525.759C684.451 525.612 684.527 525.466 684.602 525.32C787.422 493.859 866.059 490.732 1011.33 533.13C1150.53 573.758 1321 584 1453 483C1469.01 512.884 1463.65 558.653 1458.17 602.307C1467.85 632.332 1462.72 673.138 1457.84 711.971C1454.49 738.612 1451.25 764.324 1453 784.99C1339.43 849.057 1175.74 861.976 1019.84 816.474C886.359 777.526 830.52 774.506 731.341 797.91Z" fill="#004152"/>
</g>
</svg>
